<svg width="150" height="150" viewBox="0 0 150 150" fill="none" xmlns="http://www.w3.org/2000/svg">
  <style>path { fill: black; } @media (prefers-color-scheme: dark) { path { fill: white; } }</style>
  <path d="M3 104.8L14.76 46H41.136C48.92 46 54.94 47.708 59.196 51.124C63.452 54.484 65.58 59.216 65.58 65.32C65.58 70.248 64.348 74.56 61.884 78.256C59.476 81.952 56.032 84.836 51.552 86.908C47.128 88.98 41.892 90.016 35.844 90.016H16.86L27.444 81.7L22.824 104.8H3ZM38.952 104.8L26.856 83.38H47.268L59.532 104.8H38.952ZM26.94 84.052L19.968 75.064H36.852C39.596 75.064 41.724 74.392 43.236 73.048C44.748 71.648 45.504 69.716 45.504 67.252C45.504 65.124 44.832 63.612 43.488 62.716C42.2 61.764 40.408 61.288 38.112 61.288H22.74L33.324 52.048L26.94 84.052Z" />
  <path d="M65.5898 104.8L77.3498 46H93.4778L109.186 84.388H100.618L130.858 46H147.742L136.15 104.8H118.09L124.222 73.216L127.078 73.048L106.75 99.508H98.0138L86.5898 72.964L89.9498 73.216L83.6498 104.8H65.5898Z" />
</svg>
