<svg width="150" height="75" viewBox="0 0 150 75" fill="none"
  xmlns="http://www.w3.org/2000/svg">
  <path d="M3 66.8L14.76 8H41.136C48.92 8 54.94 9.708 59.196 13.124C63.452 16.484 65.58 21.216 65.58 27.32C65.58 32.248 64.348 36.56 61.884 40.256C59.476 43.952 56.032 46.836 51.552 48.908C47.128 50.98 41.892 52.016 35.844 52.016H16.86L27.444 43.7L22.824 66.8H3ZM38.952 66.8L26.856 45.38H47.268L59.532 66.8H38.952ZM26.94 46.052L19.968 37.064H36.852C39.596 37.064 41.724 36.392 43.236 35.048C44.748 33.648 45.504 31.716 45.504 29.252C45.504 27.124 44.832 25.612 43.488 24.716C42.2 23.764 40.408 23.288 38.112 23.288H22.74L33.324 14.048L26.94 46.052Z" fill="#231F20"/>
  <path d="M65.5898 66.8L77.3498 8H93.4778L109.186 46.388H100.618L130.858 8H147.742L136.15 66.8H118.09L124.222 35.216L127.078 35.048L106.75 61.508H98.0138L86.5898 34.964L89.9498 35.216L83.6498 66.8H65.5898Z" fill="#231F20"/>
</svg>
